<svg version="1.1" viewBox="0 0 96 96" xmlns="http://www.w3.org/2000/svg" xmlns:xlink="http://www.w3.org/1999/xlink" id="Icons_CycleWithPeople" overflow="hidden"><path d=" M 34.3 55 L 38.91 47 C 37.7107 46.4067 36.5749 45.6931 35.52 44.87 L 30.52 53.54 C 31.8368 53.8645 33.107 54.3551 34.3 55 Z" stroke="none" stroke-width="1" stroke-dasharray="" stroke-dashoffset="1" fill="#262262" fill-opacity="1"/><path d=" M 53.21 72 C 53.0743 71.1735 53.0041 70.3376 53 69.5 C 53.0012 68.999 53.0279 68.4983 53.08 68 L 42.92 68 C 42.9721 68.4983 42.9988 68.999 43 69.5 C 42.9959 70.3376 42.9257 71.1735 42.79 72 Z" stroke="none" stroke-width="1" stroke-dasharray="" stroke-dashoffset="1" fill="#262262" fill-opacity="1"/><path d=" M 61 55.41 C 62.1468 54.7052 63.3761 54.1444 64.66 53.74 L 59.53 44.85 C 58.4602 45.6829 57.3075 46.4034 56.09 47 Z" stroke="none" stroke-width="1" stroke-dasharray="" stroke-dashoffset="1" fill="#262262" fill-opacity="1"/><path d=" M 26.5 57 C 19.5964 57 14 62.5964 14 69.5 C 14 76.4036 19.5964 82 26.5 82 C 33.4036 82 39 76.4036 39 69.5 C 39 62.5964 33.4036 57 26.5 57 Z M 26.5 61.87 C 28.4385 61.8645 30.0145 63.4315 30.02 65.37 C 30.0255 67.3085 28.4585 68.8845 26.52 68.89 C 24.5815 68.8955 23.0055 67.3285 23 65.39 C 23 65.3833 23 65.3767 23 65.37 C 23.0055 63.4393 24.5693 61.8755 26.5 61.87 Z M 33.5 75.93 L 19.5 75.93 L 19.5 73.26 C 19.5133 72.7124 19.7699 72.1992 20.2 71.86 C 21.2378 71.1146 22.3941 70.55 23.62 70.19 C 24.5598 69.9169 25.5315 69.769 26.51 69.75 C 27.4896 69.756 28.463 69.9042 29.4 70.19 C 30.6403 70.5121 31.8033 71.08 32.82 71.86 C 33.2501 72.1992 33.5067 72.7124 33.52 73.26 Z" stroke="none" stroke-width="1" stroke-dasharray="" stroke-dashoffset="1" fill="#262262" fill-opacity="1"/><path d=" M 63 29.5 C 63 20.9396 56.0604 14 47.5 14 C 38.9396 14 32 20.9396 32 29.5 C 32 38.0604 38.9396 45 47.5 45 C 56.0604 45 63 38.0604 63 29.5 Z M 47.47 20 C 49.8724 20 51.82 21.9476 51.82 24.35 C 51.82 26.7524 49.8724 28.7 47.47 28.7 C 45.0676 28.7 43.12 26.7524 43.12 24.35 C 43.1255 21.9498 45.0698 20.0055 47.47 20 Z M 56.15 37.44 L 38.78 37.44 L 38.78 34.1 C 38.7928 33.4185 39.1124 32.7791 39.65 32.36 C 40.9313 31.4356 42.3622 30.7387 43.88 30.3 C 45.0469 29.9594 46.2545 29.7778 47.47 29.76 C 48.6835 29.762 49.8899 29.944 51.05 30.3 C 52.5856 30.6996 54.0268 31.3998 55.29 32.36 C 55.8216 32.7829 56.1368 33.4208 56.15 34.1 Z" stroke="none" stroke-width="1" stroke-dasharray="" stroke-dashoffset="1" fill="#262262" fill-opacity="1"/><path d=" M 69.5 57 C 62.5964 57 57 62.5964 57 69.5 C 57 76.4036 62.5964 82 69.5 82 C 76.4036 82 82 76.4036 82 69.5 C 82 62.5964 76.4036 57 69.5 57 Z M 69.5 61.87 C 71.4385 61.8645 73.0145 63.4315 73.02 65.37 C 73.0255 67.3085 71.4585 68.8845 69.52 68.89 C 67.5815 68.8955 66.0055 67.3285 66 65.39 C 66 65.3833 66 65.3767 66 65.37 C 66.0055 63.4393 67.5693 61.8755 69.5 61.87 Z M 76.5 75.93 L 62.5 75.93 L 62.5 73.26 C 62.5133 72.7124 62.7699 72.1992 63.2 71.86 C 64.2378 71.1146 65.3941 70.55 66.62 70.19 C 67.5598 69.9169 68.5315 69.769 69.51 69.75 C 70.4896 69.756 71.463 69.9042 72.4 70.19 C 73.6403 70.5121 74.8033 71.08 75.82 71.86 C 76.2501 72.1992 76.5067 72.7124 76.52 73.26 Z" stroke="none" stroke-width="1" stroke-dasharray="" stroke-dashoffset="1" fill="#262262" fill-opacity="1"/></svg>